<?xml version="1.0" standalone="no"?>
<!DOCTYPE svg PUBLIC "-//W3C//DTD SVG 20010904//EN"
 "http://www.w3.org/TR/2001/REC-SVG-20010904/DTD/svg10.dtd">
<svg version="1.0" xmlns="http://www.w3.org/2000/svg"
 width="96.000000pt" height="96.000000pt" viewBox="0 0 96.000000 96.000000"
 preserveAspectRatio="xMidYMid meet">
<metadata>
Created by potrace 1.14, written by Peter Selinger 2001-2017
</metadata>
<g transform="translate(0.000000,96.000000) scale(0.100000,-0.100000)"
fill="#000000" stroke="none">
<path d="M386 705 c-149 -57 -194 -215 -90 -319 80 -80 235 -104 344 -54 51
23 120 81 120 100 0 19 -32 19 -53 0 -84 -79 -266 -84 -344 -10 -56 53 -50
137 15 186 29 22 46 27 93 27 50 0 62 -4 88 -29 39 -38 41 -77 5 -105 -45 -35
-124 -22 -124 19 0 17 7 20 39 20 49 0 62 17 31 42 -35 28 -86 23 -121 -11
-71 -71 0 -171 121 -171 100 0 175 65 175 150 0 55 -29 100 -88 137 -51 32
-151 41 -211 18z"/>
<path d="M80 532 c0 -21 7 -47 15 -58 15 -19 15 -19 30 0 20 26 20 28 -15 64
l-30 32 0 -38z"/>
<path d="M847 533 c-23 -27 -26 -36 -17 -53 6 -11 15 -20 20 -20 16 0 31 40
28 73 l-3 33 -28 -33z"/>
<path d="M87 426 c-10 -26 -8 -85 3 -106 6 -11 26 -22 45 -26 34 -6 35 -7 35
-54 0 -64 20 -82 91 -78 53 3 54 2 71 -34 24 -50 49 -55 103 -23 l45 26 45
-26 c54 -32 79 -27 103 23 17 36 18 37 71 34 71 -4 91 14 91 78 0 44 2 48 29
53 43 9 61 33 61 80 0 64 -13 75 -38 35 -12 -19 -33 -40 -47 -46 -14 -7 -25
-20 -25 -31 0 -25 -47 -61 -125 -98 -55 -25 -70 -28 -170 -28 -97 1 -116 4
-166 27 -70 33 -119 74 -119 100 0 12 -10 24 -28 30 -16 6 -37 27 -48 46 -17
29 -22 32 -27 18z"/>
</g>
</svg>
